# xmcd
#
# Track frame offsets: 
#        182
#        18782
#        33215
#        47110
#        60025
#        78240
#        96452
#        111080
#        128832
#        143517
#        161130
#        177967
#        192512
#        206322
#        222780
#        243735
#        259740
#        275390
#        287167
#        304305
#
# Disc length: 4276 seconds
#
# Revision: 1
# Processed by: cddbd v1.5PL3 Copyright (c) Steve Scherf et al.
# Submitted via: ExactAudioCopy v0.90b4
#
DISCID=1910b214
DTITLE=Juice Newton - Emotions
DYEAR=1993
DGENRE=Country
TTITLE0=You Make Me Want To Make You Mine
TTITLE1=Won't You Stay Just A Little Bit Longer
TTITLE2=Slip Away
TTITLE3=Stuck In The Middle With You
TTITLE4=Can't Wait All Night
TTITLE5='Til You Cry
TTITLE6=Emotions
TTITLE7=A Little Love
TTITLE8=Good Time To Say Goodbye
TTITLE9=Both To Each Other (Friends and Lovers)
TTITLE10=Hurt
TTITLE11=Tell Me True
TTITLE12=Old Flame
TTITLE13=First Time Caller
TTITLE14=Sailor Song
TTITLE15=Cheap Love
TTITLE16=Easy Way Out
TTITLE17=Roll On, Truckers
TTITLE18=Waiting For The Sun
TTITLE19=Let Your Woman Take Care Of You
EXTD=
EXTT0=
EXTT1=
EXTT2=
EXTT3=
EXTT4=
EXTT5=
EXTT6=
EXTT7=
EXTT8=
EXTT9=
EXTT10=
EXTT11=
EXTT12=
EXTT13=
EXTT14=
EXTT15=
EXTT16=
EXTT17=
EXTT18=
EXTT19=
PLAYORDER=
